<svg width="60" height="42" viewBox="0 0 60 42" fill="none" xmlns="http://www.w3.org/2000/svg">
<path d="M58.4852 6.57158C57.7982 3.98486 55.7741 1.94764 53.2042 1.25628C48.5459 0 29.8667 0 29.8667 0C29.8667 0 11.1876 0 6.52925 1.25628C3.95927 1.94775 1.93517 3.98486 1.24819 6.57158C0 11.2602 0 21.0424 0 21.0424C0 21.0424 0 30.8247 1.24819 35.5133C1.93517 38.1 3.95927 40.0524 6.52925 40.7437C11.1876 42 29.8667 42 29.8667 42C29.8667 42 48.5458 42 53.2042 40.7437C55.7741 40.0524 57.7982 38.1 58.4852 35.5133C59.7334 30.8247 59.7334 21.0424 59.7334 21.0424C59.7334 21.0424 59.7334 11.2602 58.4852 6.57158ZM23.7576 29.924V12.1609L39.3696 21.0427L23.7576 29.924Z" fill="white"/>
</svg>
