<svg width="42" height="41" viewBox="0 0 42 41" fill="none" xmlns="http://www.w3.org/2000/svg">

<path d="M3.5 3.83301H6.545C8.435 3.83301 9.9225 5.38301 9.765 7.16634L8.3125 23.7663C8.25579 24.4094 8.33995 25.0568 8.55966 25.6673C8.77937 26.2778 9.12983 26.8381 9.58884 27.3129C10.0479 27.7877 10.6054 28.1664 11.2262 28.4252C11.8469 28.684 12.5174 28.8172 13.195 28.8163H31.8325C34.3525 28.8163 36.5575 26.8497 36.75 24.4663L37.695 11.9663C37.905 9.19967 35.7 6.94967 32.7775 6.94967H10.185M15.75 13.833H36.75M28.4375 37.1663C29.0177 37.1663 29.5741 36.9468 29.9843 36.5561C30.3945 36.1654 30.625 35.6355 30.625 35.083C30.625 34.5305 30.3945 34.0006 29.9843 33.6099C29.5741 33.2192 29.0177 32.9997 28.4375 32.9997C27.8573 32.9997 27.3009 33.2192 26.8907 33.6099C26.4805 34.0006 26.25 34.5305 26.25 35.083C26.25 35.6355 26.4805 36.1654 26.8907 36.5561C27.3009 36.9468 27.8573 37.1663 28.4375 37.1663ZM14.4375 37.1663C15.0177 37.1663 15.5741 36.9468 15.9843 36.5561C16.3945 36.1654 16.625 35.6355 16.625 35.083C16.625 34.5305 16.3945 34.0006 15.9843 33.6099C15.5741 33.2192 15.0177 32.9997 14.4375 32.9997C13.8573 32.9997 13.3009 33.2192 12.8907 33.6099C12.4805 34.0006 12.25 34.5305 12.25 35.083C12.25 35.6355 12.4805 36.1654 12.8907 36.5561C13.3009 36.9468 13.8573 37.1663 14.4375 37.1663Z" stroke="white" stroke-width="1.5" stroke-miterlimit="10" stroke-linecap="round" stroke-linejoin="round" />
</svg>
